# xmcd
#
# Track frame offsets: 
#        150
#        14496
#        29134
#        43077
#        61923
#        78976
#        96078
#        112253
#        129964
#        147017
#        162863
#
# Disc length: 2367 seconds
#
# Revision: 0
# Processed by: cddbd v1.5.2PL0 Copyright (c) Steve Scherf et al.
# Submitted via: ExactAudioCopyFreeDBPlugin 1.0
#
DISCID=92093d0b
DTITLE=Andrea Fee - 100.000 Illusionen
DYEAR=2009
DGENRE=Schlager
TTITLE0=100.000 Illusionen
TTITLE1=Lieber kleiner Hosenscheißer
TTITLE2=Sei doch wieder gut mit mir
TTITLE3=Romano
TTITLE4=Du bist die Welt für mich
TTITLE5=Himmlische Träume
TTITLE6=Du und ich für immer
TTITLE7=Er ist ein Bild von einem Mann
TTITLE8=Ein bisschen mehr als Liebelei
TTITLE9=Hey Mr. Blue
TTITLE10=Ruf mich an
EXTD=
EXTT0=
EXTT1=
EXTT2=
EXTT3=
EXTT4=
EXTT5=
EXTT6=
EXTT7=
EXTT8=
EXTT9=
EXTT10=
PLAYORDER=
